PathFileType	4	(X/Y/Z)	C:\Users\°ÂÌØÂü\Desktop\20201223\Trimmed_Trimmed_Trimmed_Trimmed_bx_n_0_501.trc
DataRate	CameraRate	NumFrames	NumMarkers	Units	OrigDataRate	OrigDataStartFrame	OrigNumFrames
50.00	50.00	       4	43	mm	50.00	101	       802
Frame#	Time	Top.Head			R.Acromium			L.Acromium			Sternum			R.ASIS			L.ASIS			V.Sacral			R.Thigh.Upper			R.Thigh.Front			R.Thigh.Rear			R.Knee.Lat			R.Knee.Med			R.Shank.Upper			R.Shank.Front			R.Shank.Rear			R.Ankle.Lat			R.Midfoot.Lat			R.Toe.Lat			R.Toe.Tip			R.Toe.Med			R.Ankle.Med			R.Midfoot.Sup			R.Heel			L.Thigh.Upper			L.Thigh.Front			L.Thigh.Rear			L.Knee.Lat			L.Knee.Med			L.Shank.Upper			L.Shank.Front			L.Shank.Rear			L.Ankle.Lat			L.Midfoot.Lat			L.Toe.Lat			L.Toe.Tip			L.Toe.Med			L.Ankle.Med			L.Midfoot.Sup			L.Heel			origin1 front left			origin2 front right			origin 3 back right			origin 4 back leftt			
		X1	Y1	Z1	X2	Y2	Z2	X3	Y3	Z3	X4	Y4	Z4	X5	Y5	Z5	X6	Y6	Z6	X7	Y7	Z7	X8	Y8	Z8	X9	Y9	Z9	X10	Y10	Z10	X11	Y11	Z11	X12	Y12	Z12	X13	Y13	Z13	X14	Y14	Z14	X15	Y15	Z15	X16	Y16	Z16	X17	Y17	Z17	X18	Y18	Z18	X19	Y19	Z19	X20	Y20	Z20	X21	Y21	Z21	X22	Y22	Z22	X23	Y23	Z23	X24	Y24	Z24	X25	Y25	Z25	X26	Y26	Z26	X27	Y27	Z27	X28	Y28	Z28	X29	Y29	Z29	X30	Y30	Z30	X31	Y31	Z31	X32	Y32	Z32	X33	Y33	Z33	X34	Y34	Z34	X35	Y35	Z35	X36	Y36	Z36	X37	Y37	Z37	X38	Y38	Z38	X39	Y39	Z39	X40	Y40	Z40	X41	Y41	Z41	X42	Y42	Z42	X43	Y43	Z43	

101	2.000	-362.65475	281.16275	1758.62903	-477.70865	82.50504	1492.12866	-475.35016	441.42801	1465.02551	-480.08252	250.25279	1279.34070	-629.28381	130.57961	1020.04443	-590.66785	345.62811	1013.09540	-799.84576	261.54932	1087.83765	-719.88696	81.81501	832.66986	-623.99854	127.36006	802.59186	-720.73816	96.40659	715.58057	-720.83167	116.86296	596.76782	-689.27344	222.47502	556.54401	-738.72626	116.91106	533.63409	-658.67816	165.17841	527.93140	-740.72473	108.34019	481.62543	-695.47021	136.48013	211.54443	-617.38501	77.13007	165.72691	-571.12665	55.41620	163.36501	-495.49393	97.53842	160.93521	-536.67786	148.63843	163.46877	-646.54236	212.53595	223.33043	-599.52802	186.70705	172.84311	-727.07245	203.37404	169.27678	-681.94409	444.86346	855.73975	-603.17224	382.18289	816.26501	-694.77014	438.54770	737.23511	-700.63477	416.73129	600.50891	-691.16565	307.78824	563.75140	-712.54901	420.90970	554.23126	-654.13818	363.67239	534.48077	-757.03918	428.35739	485.94296	-679.52728	422.69559	214.61617	-579.29974	465.50766	164.71477	-541.11169	475.70560	159.12088	-485.37921	420.13184	167.84543	-525.75720	382.49796	177.47366	-651.29871	330.22867	209.71141	-597.37323	346.17328	171.18739	-735.53320	355.43918	161.82475	-444.09100	448.62555	146.54810	-450.44440	74.94955	143.35820	-806.29803	82.26896	141.37076	-799.80200	456.95538	145.17911	
102	2.020	-356.07101	280.65823	1754.16235	-473.26074	82.11499	1488.81860	-471.19623	440.76083	1461.73938	-478.70129	249.95287	1276.06030	-631.10760	130.60841	1019.06177	-592.61890	345.64810	1011.96863	-801.12042	261.54999	1088.29700	-721.83484	81.78235	832.44415	-625.90149	127.44355	802.47864	-722.41998	96.32790	715.39142	-722.10352	116.77120	596.61627	-690.62341	222.40396	556.42303	-739.82666	116.78310	533.49158	-659.82385	165.12598	527.93048	-741.67676	108.22903	481.44434	-695.59192	136.46402	211.42140	-617.38702	77.08253	165.66122	-571.07898	55.40670	163.37372	-495.48654	97.58450	160.90959	-536.67169	148.65614	163.47945	-646.79395	212.46162	223.37669	-599.54407	186.55435	172.98424	-727.16089	203.24651	169.28712	-683.91229	445.04715	855.59338	-605.09735	382.13248	816.14050	-696.34320	438.75021	737.06207	-701.76245	416.84610	600.31006	-692.39130	307.89313	563.67590	-713.51709	421.14285	554.17181	-655.17072	363.73318	534.49274	-757.85486	428.56903	485.65652	-679.59943	422.78888	214.59303	-579.29230	465.51364	164.71426	-541.08185	475.69757	159.11531	-485.41852	420.02582	167.76836	-525.75433	382.46790	177.41335	-651.35602	330.25925	209.76794	-597.37091	346.19632	171.22020	-735.51727	355.47525	161.83504	-444.08105	448.63968	146.54539	-450.44495	74.94997	143.35744	-806.29346	82.26476	141.36465	-799.80902	456.95859	145.18066	
103	2.040	-349.57373	280.06250	1749.61096	-468.88330	81.71299	1485.39185	-467.11038	440.10104	1458.42126	-477.34741	249.68268	1272.74695	-632.92767	130.65486	1018.06989	-594.54504	345.72058	1010.83057	-802.37152	261.56824	1088.74597	-723.78491	81.76946	832.21301	-627.79681	127.53869	802.35730	-724.10278	96.26908	715.20032	-723.37799	116.69034	596.46088	-691.96094	222.34863	556.30316	-740.92822	116.66743	533.34778	-660.97168	165.08467	527.91730	-742.62604	108.12279	481.27396	-695.70789	136.45267	211.28954	-617.38702	77.03086	165.59958	-571.02972	55.39642	163.38853	-495.47379	97.62910	160.88625	-536.65948	148.68130	163.48816	-647.05261	212.39758	223.42220	-599.55884	186.41957	173.11435	-727.24738	203.12128	169.29527	-685.86450	445.24753	855.44788	-607.00800	382.09982	816.01672	-697.90155	438.97382	736.88220	-702.86475	416.99579	600.10992	-693.61072	308.01501	563.59729	-714.45300	421.44147	554.13629	-656.18848	363.81671	534.52008	-758.65649	428.80652	485.37158	-679.67273	422.88486	214.56866	-579.28503	465.51447	164.71017	-541.04773	475.68533	159.11096	-485.45895	419.91092	167.69518	-525.75592	382.43762	177.35233	-651.40851	330.29764	209.83995	-597.37292	346.22440	171.25201	-735.50433	355.50867	161.84386	-444.07275	448.65256	146.54265	-450.44083	74.95280	143.35664	-806.29297	82.26019	141.36069	-799.80988	456.96255	145.18599	
104	2.060	-343.15176	279.37793	1744.96704	-464.57318	81.29928	1481.84692	-463.08527	439.45233	1455.06250	-476.01776	249.43733	1269.39502	-634.75537	130.72997	1017.06476	-596.45276	345.84711	1009.68317	-803.60626	261.60800	1089.18555	-725.74292	81.78218	831.97552	-629.69049	127.65607	802.22723	-725.78992	96.23529	715.00342	-724.65747	116.63255	596.30206	-693.28192	222.31888	556.18427	-742.03345	116.57640	533.19934	-662.12036	165.06679	527.89661	-743.57257	108.02995	481.11060	-695.81793	136.43922	211.15791	-617.38464	76.97913	165.54443	-570.98230	55.38596	163.40710	-495.45932	97.67293	160.86378	-536.64270	148.71512	163.49301	-647.30817	212.34171	223.47218	-599.57520	186.30966	173.22960	-727.33051	203.00127	169.30237	-687.80334	445.46976	855.30206	-608.90833	382.09106	815.89337	-699.44971	439.22482	736.69672	-703.94397	417.18628	599.91077	-694.82770	308.15717	563.51276	-715.36584	421.79535	554.11285	-657.19348	363.92319	534.55939	-759.44611	429.07498	485.08871	-679.74988	422.98605	214.54224	-579.27802	465.51086	164.70166	-541.00885	475.66843	159.10764	-485.49722	419.78751	167.62997	-525.76208	382.40622	177.29057	-651.45825	330.34436	209.92888	-597.37982	346.25955	171.28485	-735.49487	355.53958	161.85097	-444.06616	448.66324	146.53998	-450.43210	74.95774	143.35707	-806.29724	82.25601	141.35846	-799.80664	456.96524	145.19356	
